<?xml version="1.0" standalone="no"?>
<!DOCTYPE svg PUBLIC "-//W3C//DTD SVG 20010904//EN"
 "http://www.w3.org/TR/2001/REC-SVG-20010904/DTD/svg10.dtd">
<svg version="1.0" xmlns="http://www.w3.org/2000/svg"
 width="834.000000pt" height="834.000000pt" viewBox="0 0 834.000000 834.000000"
 preserveAspectRatio="xMidYMid meet">
<metadata>
Created by potrace 1.11, written by Peter Selinger 2001-2013
</metadata>
<g transform="translate(0.000000,834.000000) scale(0.100000,-0.100000)"
fill="#000000" stroke="none">
<path d="M3968 8335 c-2 -1 -46 -5 -98 -9 -103 -6 -130 -9 -295 -32 -976 -135
-1894 -639 -2552 -1399 -266 -307 -516 -701 -663 -1044 -23 -53 -46 -105 -51
-116 -82 -181 -217 -653 -244 -855 -3 -25 -10 -70 -16 -100 -5 -30 -12 -82
-15 -115 -3 -33 -7 -71 -10 -85 -22 -134 -22 -660 0 -820 3 -19 8 -57 11 -85
10 -89 45 -307 50 -315 2 -3 6 -24 10 -48 3 -23 19 -95 36 -159 231 -907 747
-1696 1494 -2281 444 -348 1014 -621 1575 -756 152 -36 365 -74 460 -82 36 -3
71 -7 78 -10 73 -23 745 -24 867 0 11 2 52 7 90 11 39 5 77 9 85 10 30 4 96
15 120 20 14 3 39 8 55 10 367 65 901 255 1196 426 25 14 65 37 90 51 451 253
907 652 1235 1078 447 581 741 1288 829 1995 4 28 8 61 11 75 26 157 26 779
-1 941 -2 13 -6 47 -10 74 -5 49 -33 220 -41 260 -3 11 -9 40 -14 65 -15 73
-17 82 -35 150 -156 614 -452 1186 -869 1680 -103 123 -344 363 -471 472 -350
297 -713 516 -1165 703 -244 101 -690 219 -945 251 -27 3 -57 8 -66 9 -9 2
-52 6 -95 10 -43 4 -92 9 -109 12 -30 5 -522 13 -527 8z m501 -139 c51 -4 100
-9 110 -11 10 -2 44 -6 77 -9 32 -3 70 -8 84 -11 14 -2 41 -7 61 -9 31 -5 253
-48 314 -61 247 -55 610 -190 860 -319 114 -60 305 -166 305 -170 0 -1 -44 3
-97 10 -91 11 -406 12 -463 1 -14 -3 -47 -8 -75 -11 -80 -10 -116 -16 -185
-32 -36 -9 -76 -18 -89 -20 -109 -22 -388 -110 -536 -171 -122 -49 -335 -157
-433 -219 -68 -42 -255 -179 -312 -228 -73 -63 -268 -264 -329 -340 -252 -316
-438 -706 -550 -1151 -32 -131 -56 -244 -66 -315 -3 -25 -8 -52 -10 -60 -2 -8
-7 -40 -10 -70 -3 -30 -8 -62 -10 -70 -2 -8 -7 -46 -10 -85 -3 -38 -8 -88 -10
-110 -23 -248 -23 -764 0 -1005 1 -19 6 -71 9 -115 4 -44 9 -93 11 -110 5 -48
19 -169 20 -185 1 -13 10 -80 20 -150 2 -14 7 -45 10 -70 5 -37 29 -186 51
-310 2 -14 7 -40 10 -59 3 -19 21 -109 40 -200 19 -91 37 -179 40 -195 10 -52
143 -582 154 -610 12 -33 23 -82 24 -116 1 -20 -10 -30 -68 -60 -38 -19 -70
-30 -72 -25 -2 6 -31 48 -63 95 -33 47 -78 112 -101 145 -58 85 -227 326 -244
350 -8 11 -57 81 -110 155 -52 74 -132 186 -178 249 -46 62 -126 172 -178 244
-160 219 -626 839 -806 1072 -93 121 -192 249 -219 285 -28 36 -53 67 -56 70
-3 3 -36 45 -73 93 -37 49 -74 96 -82 105 -7 9 -78 99 -156 198 -265 336 -512
648 -606 764 -50 63 -95 125 -98 138 -8 31 86 267 187 472 285 573 687 1054
1214 1452 97 73 263 185 335 226 19 11 64 36 100 57 186 107 500 243 725 315
95 30 375 103 440 114 17 3 39 8 50 10 11 2 40 7 65 11 25 4 52 9 60 10 8 2
42 6 75 9 33 4 76 9 95 11 91 10 161 18 230 24 94 8 397 6 519 -3z m1736 -755
c619 -102 926 -579 871 -1350 -4 -58 -9 -107 -10 -110 -2 -3 -7 -28 -10 -56
-4 -27 -15 -90 -26 -140 -10 -49 -21 -101 -24 -115 -7 -42 -63 -241 -89 -320
-169 -512 -461 -1050 -845 -1560 -124 -164 -146 -192 -312 -385 -189 -221
-493 -526 -725 -730 -402 -353 -887 -704 -1322 -957 l-61 -36 -57 231 c-31
127 -59 242 -62 256 -2 13 -6 28 -8 31 -2 4 -7 22 -10 41 -3 19 -13 61 -22 94
-8 33 -17 71 -20 85 -2 14 -11 54 -19 90 -8 36 -17 81 -20 100 -3 19 -7 37 -9
40 -2 4 -15 71 -29 150 -15 80 -28 154 -30 165 -5 28 -15 93 -21 140 -3 22 -8
51 -10 65 -2 14 -7 45 -10 70 -3 25 -8 56 -10 70 -2 14 -7 57 -10 95 -4 39 -8
77 -10 85 -2 8 -7 52 -10 96 -4 45 -8 94 -10 110 -25 212 -26 957 -1 1089 2
11 7 52 10 90 4 39 9 77 11 85 2 8 6 38 10 65 3 28 17 106 31 175 14 69 27
136 30 150 8 42 65 241 91 320 46 136 104 273 169 400 350 672 935 1108 1758
1309 126 31 336 67 426 73 95 6 328 0 395 -11z m1094 -721 c295 -361 527 -765
672 -1172 37 -104 104 -325 113 -371 2 -12 9 -40 14 -62 6 -22 14 -53 16 -70
3 -16 8 -39 10 -50 3 -16 16 -93 41 -241 1 -11 6 -52 10 -90 4 -38 9 -77 11
-88 24 -133 23 -703 -2 -881 -2 -16 -6 -52 -9 -80 -3 -27 -7 -57 -10 -65 -2
-8 -7 -40 -10 -70 -4 -30 -8 -57 -10 -60 -2 -3 -6 -24 -10 -48 -11 -73 -74
-320 -111 -436 -200 -618 -568 -1198 -1069 -1687 -104 -102 -117 -113 -250
-223 -137 -113 -286 -218 -440 -311 -161 -97 -455 -245 -535 -270 -14 -4 -43
-16 -65 -26 -181 -82 -679 -214 -920 -244 -27 -3 -63 -8 -80 -10 -117 -17
-386 -32 -467 -26 -20 1 -49 69 -169 399 -116 316 -319 934 -319 970 0 7 8 16
18 20 47 19 451 275 633 401 172 119 657 494 699 540 3 4 39 35 80 71 128 111
179 159 380 360 174 173 244 248 377 399 78 90 240 291 318 396 578 778 911
1514 1020 2260 18 127 24 359 12 500 -8 86 -11 110 -29 195 -6 30 -12 60 -14
66 -1 6 -10 38 -20 70 -29 97 -28 103 7 64 17 -19 65 -78 108 -130z m-6608
-1920 c85 -107 163 -207 174 -221 11 -15 123 -159 250 -320 126 -162 328 -422
448 -579 119 -157 223 -292 230 -300 30 -36 489 -656 633 -855 241 -331 507
-706 707 -996 l66 -96 -179 -87 c-323 -155 -864 -375 -1097 -446 -84 -25 -75
-29 -210 77 -494 386 -878 851 -1148 1392 -189 378 -343 881 -390 1276 -4 28
-8 61 -11 75 -26 159 -26 767 1 893 2 12 6 42 9 67 20 166 67 402 112 558 l15
53 117 -148 c65 -81 188 -236 273 -343z m2908 -3553 c30 -94 56 -179 59 -187
3 -11 -162 232 -201 297 -5 7 8 21 35 37 24 14 45 26 48 26 3 0 29 -78 59
-173z m-231 -69 c170 -251 513 -827 589 -991 l22 -47 -72 5 c-120 8 -278 27
-392 46 -286 48 -545 120 -830 232 -145 56 -485 224 -584 288 l-65 41 220 82
c226 85 378 147 509 206 11 5 65 29 120 53 55 25 165 77 245 116 80 39 150 71
157 71 6 0 42 -46 81 -102z"/>
</g>
</svg>
